<svg width="100" height="100" viewBox="0 0 100 100" fill="none" xmlns="http://www.w3.org/2000/svg">
<rect opacity="0.1" x="10" y="10" width="80" height="80" rx="8.30298" fill="white"/>
<rect opacity="0.1" x="16.9621" y="10" width="66.0759" height="66.0759" rx="8.30298" fill="white"/>
<path d="M35.7473 54.9542C34.0878 54.9542 32.6429 54.5817 31.4124 53.8366C30.1932 53.0803 29.2505 52.0191 28.5845 50.6532C27.9184 49.2759 27.5854 47.656 27.5854 45.7933V45.7764C27.5854 43.925 27.9241 42.3163 28.6014 40.9503C29.2788 39.5844 30.227 38.5289 31.4462 37.7838C32.6654 37.0387 34.0878 36.6662 35.7134 36.6662C37.181 36.6662 38.4397 36.9541 39.4896 37.5298C40.5395 38.0943 41.3635 38.828 41.9619 39.7311C42.5715 40.6343 42.9383 41.5882 43.0625 42.5929L43.0795 42.7284H40.2008L40.1669 42.5929C39.9524 41.7123 39.4783 40.9391 38.7445 40.273C38.022 39.607 37.0117 39.2739 35.7134 39.2739C34.6974 39.2739 33.8056 39.5449 33.038 40.0867C32.2703 40.6173 31.672 41.3737 31.243 42.3558C30.8141 43.3267 30.5996 44.4781 30.5996 45.8102V45.8272C30.5996 47.1931 30.8141 48.3615 31.243 49.3324C31.6833 50.3032 32.2873 51.0483 33.0549 51.5676C33.8338 52.0869 34.7313 52.3465 35.7473 52.3465C36.9552 52.3465 37.9317 52.0417 38.6768 51.4321C39.4331 50.8112 39.9355 50.0097 40.1839 49.0276L40.2177 48.8921H43.1133L43.0964 49.0106C42.9383 50.1282 42.5263 51.1386 41.8603 52.0417C41.2055 52.9335 40.3532 53.6447 39.3033 54.1753C38.2647 54.6946 37.0794 54.9542 35.7473 54.9542ZM51.5461 54.9542C49.9318 54.9542 48.7239 54.5704 47.9224 53.8028C47.1209 53.0351 46.7201 51.8103 46.7201 50.1282V39.4433H44.1463V37.0049H46.7201V32.2466H49.7681V37.0049H53.121V39.4433H49.7681V50.1113C49.7681 51.0483 49.9713 51.6861 50.3777 52.0248C50.7841 52.3522 51.3825 52.5158 52.1727 52.5158C52.3533 52.5158 52.5226 52.5102 52.6807 52.4989C52.85 52.4763 52.9968 52.4594 53.121 52.4481V54.8357C52.9403 54.8583 52.7033 54.8809 52.4098 54.9034C52.1275 54.9373 51.8397 54.9542 51.5461 54.9542ZM56.2875 54.6156V37.0049H59.2339V39.9851H59.3016C59.5951 38.9691 60.1031 38.162 60.8256 37.5637C61.5481 36.9654 62.4061 36.6662 63.3995 36.6662C63.6592 36.6662 63.8906 36.6831 64.0938 36.717C64.3083 36.7396 64.472 36.7622 64.5848 36.7847V39.6465C64.472 39.6013 64.2688 39.5618 63.9752 39.5279C63.693 39.4941 63.3713 39.4771 63.01 39.4771C62.2537 39.4771 61.5876 39.6465 61.0119 39.9851C60.4475 40.3238 60.0072 40.8149 59.6911 41.4583C59.3863 42.0905 59.2339 42.8525 59.2339 43.7444V54.6156H56.2875ZM67.1418 54.6156V30.1807H70.0882V54.6156H67.1418Z" fill="white"/>
</svg>
