<svg width="100" height="50" viewBox="0 0 100 50" fill="none" xmlns="http://www.w3.org/2000/svg">
<path opacity="0.1" fill-rule="evenodd" clip-rule="evenodd" d="M100 25L96.4623 28.5378C70.8019 54.1981 29.1981 54.1981 3.53775 28.5377L0 25L3.53775 21.4622L6.63524 24.5597L6.19497 25L6.63523 25.4403C7.52752 26.3325 8.44047 27.1916 9.37253 28.0174C32.5256 48.5309 67.4744 48.5309 90.6275 28.0174C91.5567 27.1941 92.467 26.3377 93.3567 25.4483C93.3594 25.4456 93.3621 25.443 93.3648 25.4403L93.805 25L93.3648 24.5597C93.3617 24.5567 93.3587 24.5536 93.3556 24.5506C92.4663 23.6616 91.5564 22.8056 90.6275 21.9826C67.4744 1.46907 32.5256 1.46907 9.37253 21.9826C8.44047 22.8084 7.52752 23.6674 6.63524 24.5597L3.53775 21.4622C29.1981 -4.19815 70.8019 -4.19815 96.4623 21.4623L100 25Z" fill="white"/>
<path opacity="0.25" fill-rule="evenodd" clip-rule="evenodd" d="M65.1994 41.499C69.6468 37.3998 72.4329 31.5253 72.4329 25C72.4329 18.4747 69.6468 12.6002 65.1994 8.50098C75.5192 11.1302 85.2881 16.4831 93.3647 24.5597L93.805 25L93.3647 25.4403C85.2881 33.5169 75.5192 38.8698 65.1994 41.499ZM34.8003 41.499C24.4806 38.8697 14.7118 33.5168 6.63518 25.4403L6.19492 25L6.63518 24.5597C14.7118 16.4832 24.4806 11.1303 34.8003 8.50101C30.3529 12.6002 27.5669 18.4748 27.5669 25C27.5669 31.5252 30.3529 37.3998 34.8003 41.499Z" fill="white"/>
<ellipse opacity="0.25" cx="49.9999" cy="25" rx="15.7298" ry="15.7298" fill="white"/>
<ellipse opacity="0.5" cx="49.9999" cy="25" rx="9.48959" ry="9.48959" fill="white"/>
</svg>
