<svg width="100" height="100" viewBox="0 0 100 100" fill="none" xmlns="http://www.w3.org/2000/svg">
<path opacity="0.2" fill-rule="evenodd" clip-rule="evenodd" d="M50 11.0294C35.9011 11.0294 24.4717 22.4588 24.4717 36.5577V63.4423C24.4717 77.5412 35.9011 88.9706 50 88.9706C64.0989 88.9706 75.5283 77.5412 75.5283 63.4423V36.5577C75.5283 22.4588 64.0989 11.0294 50 11.0294ZM50 30.4192C47.8716 30.4192 46.1462 32.1446 46.1462 34.273V42.4895C46.1462 44.6179 47.8716 46.3433 50 46.3433C52.1284 46.3433 53.8538 44.6179 53.8538 42.4895V34.273C53.8538 32.1446 52.1284 30.4192 50 30.4192Z" fill="white"/>
<path fill-rule="evenodd" clip-rule="evenodd" d="M48.9946 13.6632C36.7877 14.167 27.0419 24.5106 27.0419 37.1968V52.8431H40.5954C44.5835 52.8431 47.9224 49.9825 48.7806 46.1464C47.2499 45.6362 46.1462 44.1917 46.1462 42.4895V34.273C46.1462 32.4924 47.3538 30.9939 48.9946 30.5516V13.6632Z" fill="white"/>
<path opacity="0.2" fill-rule="evenodd" clip-rule="evenodd" d="M51.0858 13.6632C63.2927 14.167 73.0385 24.5106 73.0385 37.1968V52.8431H59.485C55.4969 52.8431 52.158 49.9825 51.2998 46.1464C52.8306 45.6362 53.9342 44.1917 53.9342 42.4895V34.273C53.9342 32.4924 52.7266 30.9939 51.0858 30.5516V13.6632Z" fill="white"/>
</svg>
