<svg width="100" height="100" viewBox="0 0 100 100" fill="none" xmlns="http://www.w3.org/2000/svg">
<path opacity="0.2" fill-rule="evenodd" clip-rule="evenodd" d="M50 11.0294C64.0989 11.0294 75.5283 22.4588 75.5283 36.5577V63.4423C75.5283 77.5412 64.0989 88.9706 50 88.9706C35.9011 88.9706 24.4717 77.5412 24.4717 63.4423V36.5577C24.4717 22.4588 35.9011 11.0294 50 11.0294ZM50 30.4192C52.1284 30.4192 53.8538 32.1446 53.8538 34.273V42.4895C53.8538 44.6179 52.1284 46.3433 50 46.3433C47.8716 46.3433 46.1462 44.6179 46.1462 42.4895V34.273C46.1462 32.1446 47.8716 30.4192 50 30.4192Z" fill="white"/>
<path fill-rule="evenodd" clip-rule="evenodd" d="M51.0054 13.6632C63.2123 14.167 72.9581 24.5106 72.9581 37.1968V52.8431H59.4046C55.4165 52.8431 52.0776 49.9825 51.2194 46.1464C52.7502 45.6362 53.8538 44.1917 53.8538 42.4895V34.273C53.8538 32.4924 52.6462 30.9939 51.0054 30.5516V13.6632Z" fill="white"/>
<path opacity="0.2" fill-rule="evenodd" clip-rule="evenodd" d="M48.9142 13.6632C36.7073 14.167 26.9615 24.5106 26.9615 37.1968V52.8431H40.515C44.5031 52.8431 47.842 49.9825 48.7002 46.1464C47.1694 45.6362 46.0658 44.1917 46.0658 42.4895V34.273C46.0658 32.4924 47.2734 30.9939 48.9142 30.5516V13.6632Z" fill="white"/>
</svg>
